<?xml version="1.0" encoding="UTF-8"?>
<svg id="OBJECTS" xmlns="http://www.w3.org/2000/svg" viewBox="0 0 754.16 379.13">
  <defs>
    <style>
      .cls-1 {
        fill: #c38154;
      }

      .cls-1, .cls-2, .cls-3, .cls-4, .cls-5, .cls-6, .cls-7 {
        stroke-width: 0px;
      }

      .cls-8 {
        stroke: #252424;
        stroke-miterlimit: 10;
      }

      .cls-8, .cls-4 {
        fill: #561c24;
      }

      .cls-2 {
        fill: #884a39;
      }

      .cls-3 {
        fill: #823a4f;
      }

      .cls-5 {
        fill: #6a213e;
      }

      .cls-6 {
        fill: #ffc26f;
      }

      .cls-7 {
        fill: #c3725d;
      }
    </style>
  </defs>
  <path class="cls-3" d="M127.44,108.78c-.85-.98-2.12-1.47-3.35-1.88-8.45-2.81-17.42-3.66-26.3-4.24-6.54-.43-13.08-.72-19.63-.87-6.41-.15-13.39,0-18.42,3.98-1.23.97-2.38,2.35-2.26,3.92.18,2.48,3.13,3.59,5.56,4.12,18.57,4.1,37.73,8.22,56.44,4.83,2.54-.46,5.18-1.13,7.06-2.9,1.87-1.78,2.6-5,.91-6.95Z"/>
  <path class="cls-3" d="M692.66,63.78c-17.07-2.34-34.51-2.01-51.49.97-1.91.34-3.88.73-5.44,1.89-1.56,1.15-2.56,3.28-1.83,5.08.71,1.73,2.88,3.24,2.11,4.94-4.95,2.14-10.5,2.23-15.88,2.44-13.15.52-26.26,2.01-39.2,4.43-3.87.73-7.78,1.56-11.24,3.42-.65.35-1.33.79-1.6,1.48-.75,1.96,2.09,3.22,4.19,3.37,19.5,1.42,39.15.79,58.52-1.86,4.86-.67,10.92-2.73,11.14-7.64.05-1.02-.19-2.12.28-3.03.48-.94,1.56-1.4,2.57-1.73,15.92-5.34,34.47-.44,49.38-8.17,1.18-.61,2.48-1.56,2.44-2.9-.06-1.74-2.22-2.46-3.94-2.7Z"/>
  <path class="cls-3" d="M182.22,32.68c.63-1.79,2.41-2.9,4.11-3.74,21.3-10.49,47.52-1.93,70.09-9.29,11.31-3.69,21.07-11.2,32.34-14.99,8.03-2.7,16.58-3.43,25.04-3.91,12.74-.72,25.5-.92,38.26-.59,5.22.13,10.81.48,14.95,3.65,4.15,3.17,5.65,10.24,1.57,13.5-4.36,3.49-13.59,2.57-13.32,8.15.17,3.42,4.4,4.83,7.78,5.35,8.71,1.35,17.41,2.7,26.12,4.05,3.56.55,7.26,1.16,10.21,3.21,2.96,2.06,4.92,6.03,3.51,9.34-1.34,3.17-5.04,4.54-8.38,5.38-18.03,4.52-37.43,3.41-54.83-3.14-7.39-2.78-14.46-6.52-22.13-8.4-7.73-1.89-15.78-1.81-23.73-1.48-34.43,1.44-69.22,7.45-103.07,1.04-4.41-.84-10.02-3.9-8.53-8.14Z"/>
  <path class="cls-1" d="M754.16,268.43c-50.17-22.66-102.48-38.83-157.08-38-130.14,1.99-250.63,100.57-378.83,78.11-44.71-7.83-85.67-30.06-129.83-40.53-28.81-6.83-61.41-7.25-88.42,3.16v107.01h754.16v-109.74Z"/>
  <g>
    <path class="cls-6" d="M452.74,174.17v-14.81s-.23-5.9-5.71-9.1c-5.48,3.2-5.71,9.1-5.71,9.1v14.81h11.41Z"/>
    <path class="cls-6" d="M490.6,174.17v-14.81s-.23-5.9-5.71-9.1c-5.48,3.2-5.71,9.1-5.71,9.1v14.81h11.41Z"/>
    <path class="cls-8" d="M437.09,159.36s-.23-5.9-5.71-9.1c-5.48,3.2-5.71,9.1-5.71,9.1v14.81h11.41v-14.81Z"/>
    <path class="cls-8" d="M474.06,174.17v-14.81s-.31-5.9-7.77-9.1c-7.46,3.2-7.77,9.1-7.77,9.1v14.81h15.54Z"/>
    <path class="cls-8" d="M506.25,174.17v-14.81s-.23-5.9-5.71-9.1c-5.48,3.2-5.71,9.1-5.71,9.1v14.81h11.41Z"/>
    <path class="cls-4" d="M548.78,162.9s-.16-2.37-4.07-3.65c-3.91,1.28-4.07,3.65-4.07,3.65v11.12h8.14v-11.12Z"/>
    <path class="cls-6" d="M546.95,185.16c-13.55,5.1-14.12,14.52-14.12,14.52v44.19h28.24v-44.19s-.56-9.41-14.12-14.52Z"/>
    <path class="cls-4" d="M546.95,264.59c-13.55,5.53-14.12,15.73-14.12,15.73v47.88h28.24v-47.88s-.56-10.2-14.12-15.73Z"/>
    <path class="cls-6" d="M558.18,162.9s-.12-2.37-3.12-3.65c-3,1.28-3.12,3.65-3.12,3.65v11.12h6.24v-11.12Z"/>
    <path class="cls-4" d="M587.7,193.06c-11.74,5.1-12.23,12.4-12.23,12.4v38.4h24.46v-36.28s-.49-9.41-12.23-14.52Z"/>
    <path class="cls-6" d="M587.7,264.59c-11.74,5.53-12.23,15.73-12.23,15.73v47.88h24.46v-47.88s-.49-10.2-12.23-15.73Z"/>
    <path class="cls-6" d="M632.05,171.62c-2.24,0-4.05,1.81-4.05,4.05h.02v13.08h8.06v-13.08h.02c0-2.24-1.82-4.05-4.05-4.05Z"/>
    <path class="cls-6" d="M537.57,162.9s-.12-2.37-3.12-3.65c-3,1.28-3.12,3.65-3.12,3.65v11.12h6.24v-11.12Z"/>
    <path class="cls-6" d="M303.75,171.62c-2.24,0-4.05,1.81-4.05,4.05h.02v13.08h8.06v-13.08h.02c0-2.24-1.81-4.05-4.05-4.05Z"/>
    <path class="cls-6" d="M422.77,328.2h25.87v-34.83s.71-13.4,17.65-20.67c16.95,7.27,17.65,20.67,17.65,20.67v34.83h25.87v-75.67h-87.05v75.67Z"/>
    <path class="cls-6" d="M381.77,162.9s-.12-2.37-3.12-3.65c-3,1.28-3.12,3.65-3.12,3.65v11.12h6.24v-11.12Z"/>
    <path class="cls-6" d="M346,264.59c-11.74,5.53-12.23,15.73-12.23,15.73v47.88h24.46v-47.88s-.49-10.2-12.23-15.73Z"/>
    <path class="cls-4" d="M346,193.06c-11.74,5.1-12.23,14.52-12.23,14.52v36.28h24.46v-38.4s-.49-7.29-12.23-12.4Z"/>
    <path class="cls-4" d="M466.29,180.33c-41.78,17.91-43.52,50.95-43.52,50.95v17.1h25.87v-32.76s.71-13.4,17.65-20.67c16.95,7.27,17.65,20.67,17.65,20.67v32.76h25.87v-17.1s-1.74-33.03-43.52-50.95Z"/>
    <path class="cls-4" d="M386.75,264.59c-13.55,5.53-14.12,15.73-14.12,15.73v47.88h28.24v-47.88s-.56-10.2-14.12-15.73Z"/>
    <path class="cls-6" d="M399.26,159.25c-3,1.28-3.12,3.65-3.12,3.65v11.12h6.24v-11.12s-.12-2.37-3.12-3.65Z"/>
    <path class="cls-5" d="M393.07,162.9s-.16-2.37-4.07-3.65c-3.91,1.28-4.07,3.65-4.07,3.65v11.12h8.14v-11.12Z"/>
    <path class="cls-6" d="M386.75,185.16c-13.55,5.1-14.12,14.52-14.12,14.52v44.19h28.24v-44.19s-.56-9.41-14.12-14.52Z"/>
    <path class="cls-4" d="M365.04,142.3c0-1.04-.84-1.88-1.88-1.88s-1.88.84-1.88,1.88.84,1.88,1.88,1.88,1.88-.84,1.88-1.88Z"/>
    <path class="cls-4" d="M365.74,137.84c0-1.43-1.16-2.58-2.58-2.58s-2.58,1.16-2.58,2.58,1.16,2.58,2.58,2.58,2.58-1.16,2.58-2.58Z"/>
    <path class="cls-4" d="M365.17,133.79c0-.48-.32-.91-.82-1.17l-1.19-12.42-1.19,12.42c-.49.27-.82.69-.82,1.17,0,.81.9,1.47,2.01,1.47s2.01-.66,2.01-1.47Z"/>
    <path class="cls-4" d="M305.63,147.91c0-1.04-.84-1.88-1.88-1.88s-1.88.84-1.88,1.88.84,1.88,1.88,1.88,1.88-.84,1.88-1.88Z"/>
    <circle class="cls-4" cx="303.75" cy="143.45" r="2.58"/>
    <path class="cls-4" d="M305.77,139.4c0-.48-.32-.91-.82-1.17l-1.19-12.42-1.19,12.42c-.49.27-.82.69-.82,1.17,0,.81.9,1.47,2.01,1.47s2.01-.66,2.01-1.47Z"/>
    <path class="cls-4" d="M391.73,132.01c0-1.51-1.22-2.73-2.73-2.73s-2.73,1.22-2.73,2.73,1.22,2.73,2.73,2.73,2.73-1.22,2.73-2.73Z"/>
    <path class="cls-4" d="M392.75,125.52c0-2.07-1.68-3.76-3.76-3.76s-3.76,1.68-3.76,3.76,1.68,3.76,3.76,3.76,3.76-1.68,3.76-3.76Z"/>
    <path class="cls-4" d="M391.93,119.63c0-.7-.47-1.32-1.19-1.71l-1.74-18.06-1.74,18.06c-.72.39-1.19,1.01-1.19,1.71,0,1.18,1.31,2.13,2.93,2.13s2.93-.95,2.93-2.13Z"/>
    <path class="cls-4" d="M474.12,77.4c0-4.01-3.25-7.27-7.27-7.27s-7.27,3.25-7.27,7.27,3.25,7.27,7.27,7.27,7.27-3.25,7.27-7.27Z"/>
    <path class="cls-4" d="M472.52,66.01c0-1.36-.91-2.55-2.3-3.3l-3.36-34.94-3.36,34.94c-1.39.75-2.3,1.95-2.3,3.3,0,2.28,2.54,4.12,5.67,4.12s5.67-1.85,5.67-4.12Z"/>
    <path class="cls-4" d="M330.65,146.03c0-1.04-.84-1.88-1.88-1.88s-1.88.84-1.88,1.88.84,1.88,1.88,1.88,1.88-.84,1.88-1.88Z"/>
    <path class="cls-4" d="M331.35,141.57c0-1.43-1.16-2.58-2.58-2.58s-2.58,1.16-2.58,2.58,1.16,2.58,2.58,2.58,2.58-1.16,2.58-2.58Z"/>
    <path class="cls-4" d="M330.79,137.52c0-.48-.32-.91-.82-1.17l-1.19-12.42-1.19,12.42c-.49.27-.82.69-.82,1.17,0,.81.9,1.47,2.01,1.47s2.01-.66,2.01-1.47Z"/>
    <path class="cls-4" d="M633.93,147.91c0-1.04-.84-1.88-1.88-1.88s-1.88.84-1.88,1.88.84,1.88,1.88,1.88,1.88-.84,1.88-1.88Z"/>
    <path class="cls-4" d="M634.63,143.45c0-1.43-1.16-2.58-2.58-2.58s-2.58,1.16-2.58,2.58,1.16,2.58,2.58,2.58,2.58-1.16,2.58-2.58Z"/>
    <path class="cls-4" d="M634.06,139.4c0-.48-.32-.91-.82-1.17l-1.19-12.42-1.19,12.42c-.49.27-.82.69-.82,1.17,0,.81.9,1.47,2.01,1.47s2.01-.66,2.01-1.47Z"/>
    <path class="cls-4" d="M572.42,142.3c0-1.04-.84-1.88-1.88-1.88s-1.88.84-1.88,1.88.84,1.88,1.88,1.88,1.88-.84,1.88-1.88Z"/>
    <path class="cls-4" d="M573.12,137.84c0-1.43-1.16-2.58-2.58-2.58s-2.58,1.16-2.58,2.58,1.16,2.58,2.58,2.58,2.58-1.16,2.58-2.58Z"/>
    <path class="cls-4" d="M572.56,133.79c0-.48-.32-.91-.82-1.17l-1.19-12.42-1.19,12.42c-.49.27-.82.69-.82,1.17,0,.81.9,1.47,2.01,1.47s2.01-.66,2.01-1.47Z"/>
    <path class="cls-4" d="M547.43,132.01c0-1.51-1.22-2.73-2.73-2.73s-2.73,1.22-2.73,2.73,1.22,2.73,2.73,2.73,2.73-1.22,2.73-2.73Z"/>
    <path class="cls-4" d="M548.46,125.52c0-2.07-1.68-3.76-3.76-3.76s-3.76,1.68-3.76,3.76,1.68,3.76,3.76,3.76,3.76-1.68,3.76-3.76Z"/>
    <path class="cls-4" d="M547.63,119.63c0-.7-.47-1.32-1.19-1.71l-1.74-18.06-1.74,18.06c-.72.39-1.19,1.01-1.19,1.71,0,1.18,1.31,2.13,2.93,2.13s2.93-.95,2.93-2.13Z"/>
    <path class="cls-4" d="M606.81,146.03c0-1.04-.84-1.88-1.88-1.88s-1.88.84-1.88,1.88.84,1.88,1.88,1.88,1.88-.84,1.88-1.88Z"/>
    <path class="cls-4" d="M607.51,141.57c0-1.43-1.16-2.58-2.58-2.58s-2.58,1.16-2.58,2.58,1.16,2.58,2.58,2.58,2.58-1.16,2.58-2.58Z"/>
    <path class="cls-4" d="M606.94,137.52c0-.48-.32-.91-.82-1.17l-1.19-12.42-1.19,12.42c-.49.27-.82.69-.82,1.17,0,.81.9,1.47,2.01,1.47s2.01-.66,2.01-1.47Z"/>
    <path class="cls-2" d="M641.8,328.2l-.81-45.57h.91c1.16,0,2.1-.86,2.1-1.92,0-.3-.09-.58-.23-.83,1.12-.04,2.02-.87,2.02-1.9s-.94-1.92-2.1-1.92h-2.82l-.51-28.76h.6c1.05,0,1.9-.78,1.9-1.73,0-.27-.08-.52-.2-.75,1.01-.04,1.83-.79,1.83-1.72s-.85-1.73-1.9-1.73h-2.33l-.84-47.38h.5c.93,0,1.68-.69,1.68-1.53,0-.24-.07-.46-.18-.66.89-.03,1.61-.69,1.61-1.52s-.75-1.53-1.68-1.53h-.75v-26.4h1.98c.88,0,1.6-.72,1.6-1.6,0-.77-.55-1.38-1.27-1.53-.75-5.33-5.31-9.44-10.85-9.44s-10.1,4.11-10.85,9.44c-.72.15-1.27.77-1.27,1.53,0,.88.72,1.6,1.6,1.6h1.98v26.4h-.75c-.93,0-1.68.68-1.68,1.53s.72,1.49,1.61,1.52c-.11.2-.18.42-.18.66,0,.84.75,1.53,1.68,1.53h.38l-.8,47.38h-2.25c-1.05,0-1.9.78-1.9,1.73s.81,1.69,1.83,1.72c-.12.23-.2.48-.2.75,0,.96.85,1.73,1.9,1.73h.53l-.49,28.76h-2.77c-1.16,0-2.1.86-2.1,1.92s.9,1.86,2.02,1.9c-.13.25-.23.53-.23.83,0,1.06.94,1.92,2.1,1.92h.86l-.77,45.57h-15.67v-75.67h3.01v-4.14h-3.01v-89.98h.57c.23,0,.41-.18.41-.41v-9.68c0-.23-.18-.41-.41-.41h-4.53c-.23,0-.41.18-.41.41v9.68c0,.23.18.41.41.41h.57v22.82l-31.01-6.48v-20.08h.57c.23,0,.41-.18.41-.41v-9.68c0-.23-.18-.41-.41-.41h-4.53c-.23,0-.41.18-.41.41v9.68c0,.23.18.41.41.41h.57v19.37h-.07s-7.57-.01-7.57-.01v-18.18h1.66c.17,0,.32-.14.32-.32v-4.52c0-.17-.14-.32-.32-.32h-2.21c0-8.81-7.14-15.96-15.96-15.96s-15.96,7.14-15.96,15.96h-2.21c-.17,0-.32.14-.32.32v4.52c0,.17.14.32.32.32h1.66v18.18h-3.09v.14h-13.46v-27.47h2.12c.54,0,.98-.44.98-.98v-5.5c0-.54-.44-.98-.98-.98h-2.17c0-23.87-18.69-43.37-42.23-44.68,1.63-.9,2.76-2.61,2.76-4.61,0-2.92-2.36-5.28-5.28-5.28s-5.28,2.36-5.28,5.28c0,2,1.12,3.71,2.76,4.61-23.54,1.31-42.23,20.81-42.23,44.68h-3.29c-.54,0-.98.44-.98.98v5.5c0,.54.44.98.98.98h2.12v27.47h-12.34v-.14h-3.09v-18.18h1.66c.17,0,.32-.14.32-.32v-4.52c0-.17-.14-.32-.32-.32h-2.21c0-8.81-7.14-15.96-15.96-15.96s-15.96,7.14-15.96,15.96h-2.21c-.17,0-.32.14-.32.32v4.52c0,.17.14.32.32.32h1.66v18.18h-7.64s0-19.36,0-19.36h.57c.23,0,.41-.18.41-.41v-9.68c0-.23-.18-.41-.41-.41h-4.53c-.23,0-.41.18-.41.41v9.68c0,.23.18.41.41.41h.57v20.08l-31.01,6.48v-22.82h.57c.23,0,.41-.18.41-.41v-9.68c0-.23-.18-.41-.41-.41h-4.53c-.23,0-.41.18-.41.41v9.68c0,.23.18.41.41.41h.57v89.98h-3.01v4.14h3.01v75.67h-13.57l-.81-45.57h.91c1.16,0,2.1-.86,2.1-1.92,0-.3-.09-.58-.23-.83,1.12-.04,2.02-.87,2.02-1.9s-.94-1.92-2.1-1.92h-2.82l-.51-28.76h.6c1.05,0,1.9-.78,1.9-1.73,0-.27-.08-.52-.2-.75,1.01-.04,1.83-.79,1.83-1.72s-.85-1.73-1.9-1.73h-2.33l-.84-47.38h.5c.93,0,1.68-.69,1.68-1.53,0-.24-.07-.46-.18-.66.89-.03,1.61-.69,1.61-1.52s-.75-1.53-1.68-1.53h-.75v-26.4h1.98c.88,0,1.6-.72,1.6-1.6,0-.77-.55-1.38-1.27-1.53-.75-5.33-5.31-9.44-10.85-9.44s-10.1,4.11-10.85,9.44c-.72.15-1.27.77-1.27,1.53,0,.88.72,1.6,1.6,1.6h1.98v26.4h-.75c-.93,0-1.68.68-1.68,1.53s.72,1.49,1.61,1.52c-.11.2-.18.42-.18.66,0,.84.75,1.53,1.68,1.53h.38l-.8,47.38h-2.25c-1.05,0-1.9.78-1.9,1.73s.81,1.69,1.83,1.72c-.12.23-.2.48-.2.75,0,.96.85,1.73,1.9,1.73h.53l-.49,28.76h-2.77c-1.16,0-2.1.86-2.1,1.92s.9,1.86,2.02,1.9c-.14.25-.23.53-.23.83,0,1.06.94,1.92,2.1,1.92h.86l-.77,45.57h-11.81v11.57h368.2v-11.57h-8.59ZM307.79,175.68v13.08h-8.06v-13.08h-.02c0-2.24,1.81-4.05,4.05-4.05s4.05,1.81,4.05,4.05h-.02ZM358.23,328.2h-24.46v-47.88s.49-10.2,12.23-15.73c11.74,5.53,12.23,15.73,12.23,15.73v47.88ZM358.23,243.86h-24.46v-36.28s.49-9.41,12.23-14.52c11.74,5.1,12.23,12.4,12.23,12.4v38.4ZM384.93,162.9s.16-2.37,4.07-3.65c3.91,1.28,4.07,3.65,4.07,3.65v11.12h-8.14v-11.12ZM375.52,162.9s.12-2.37,3.12-3.65c3,1.28,3.12,3.65,3.12,3.65v11.12h-6.24v-11.12ZM400.87,328.2h-28.24v-47.88s.56-10.2,14.12-15.73c13.55,5.53,14.12,15.73,14.12,15.73v47.88ZM400.87,243.86h-28.24v-44.19s.56-9.41,14.12-14.52c13.55,5.1,14.12,14.52,14.12,14.52v44.19ZM402.38,174.02h-6.24v-11.12s.12-2.37,3.12-3.65c3,1.28,3.12,3.65,3.12,3.65v11.12ZM500.54,150.26c5.48,3.2,5.71,9.1,5.71,9.1v14.81h-11.41v-14.81s.23-5.9,5.71-9.1ZM484.89,150.26c5.48,3.2,5.71,9.1,5.71,9.1v14.81h-11.41v-14.81s.23-5.9,5.71-9.1ZM466.29,150.26c7.46,3.2,7.77,9.1,7.77,9.1v14.81h-15.54v-14.81s.31-5.9,7.77-9.1ZM447.04,150.26c5.48,3.2,5.71,9.1,5.71,9.1v14.81h-11.41v-14.81s.23-5.9,5.71-9.1ZM425.67,159.36s.23-5.9,5.71-9.1c5.48,3.2,5.71,9.1,5.71,9.1v14.81h-11.41v-14.81ZM509.81,328.2h-25.87v-34.83s-.71-13.4-17.65-20.67c-16.95,7.27-17.65,20.67-17.65,20.67v34.83h-25.87v-75.67h87.05v75.67ZM509.81,248.38h-25.87v-32.76s-.71-13.4-17.65-20.67c-16.95,7.27-17.65,20.67-17.65,20.67v32.76h-25.87v-17.1s1.74-33.03,43.52-50.95c41.78,17.91,43.52,50.95,43.52,50.95v17.1ZM551.94,162.9s.12-2.37,3.12-3.65c3,1.28,3.12,3.65,3.12,3.65v11.12h-6.24v-11.12ZM540.63,162.9s.16-2.37,4.07-3.65c3.91,1.28,4.07,3.65,4.07,3.65v11.12h-8.14v-11.12ZM531.33,162.9s.12-2.37,3.12-3.65c3,1.28,3.12,3.65,3.12,3.65v11.12h-6.24v-11.12ZM561.07,328.2h-28.24v-47.88s.56-10.2,14.12-15.73c13.55,5.53,14.12,15.73,14.12,15.73v47.88ZM561.07,243.86h-28.24v-44.19s.56-9.41,14.12-14.52c13.55,5.1,14.12,14.52,14.12,14.52v44.19ZM599.94,328.2h-24.46v-47.88s.49-10.2,12.23-15.73c11.74,5.53,12.23,15.73,12.23,15.73v47.88ZM599.94,243.86h-24.46v-38.4s.49-7.29,12.23-12.4c11.74,5.1,12.23,14.52,12.23,14.52v36.28ZM636.08,175.68v13.08h-8.06v-13.08h-.02c0-2.24,1.81-4.05,4.05-4.05s4.05,1.81,4.05,4.05h-.02Z"/>
    <path class="cls-4" d="M608.88,246.94c-47.25-.24-94.5-.16-141.75-.15-23.21,0-46.42,0-69.63.01-11.61,0-23.21,0-34.82,0-12.33,0-25.05-.89-37.3.69-3.37.43-3.37,4.82,0,5.25,11.45,1.47,23.29.68,34.82.69,11.61,0,23.21,0,34.82,0,24.04,0,48.08,0,72.12.01,40.65,0,81.3.06,121.96-.08,2.35.03,4.71.03,7.06-.03,4.25-.02,8.49-.02,12.74-.05,4.11.02,4.11-6.35,0-6.37Z"/>
    <path class="cls-4" d="M568.06,173.25c-33.74-.07-67.47-.05-101.21-.04-16.57,0-33.15,0-49.72,0-8.29,0-16.57,0-24.86,0-8.81,0-17.89-.26-26.63.2-2.41.13-2.41,1.43,0,1.56,8.17.44,16.63.2,24.86.2,8.29,0,16.57,0,24.86,0,17.16,0,34.33,0,51.49,0,29.03,0,58.05.02,87.08-.02,1.68,0,3.36,0,5.04,0,3.03,0,6.06,0,9.09-.01,2.93,0,2.93-1.88,0-1.89Z"/>
    <path class="cls-4" d="M316.45,276.24c-7.93-1.65-17.08-.5-25.17-.54-1.31,0-1.95,1.01-1.95,2.02,0,1.01.65,2.02,1.95,2.02,8.1-.04,17.25,1.11,25.17-.54,1.47-.31,1.47-2.65,0-2.95Z"/>
    <path class="cls-4" d="M315.54,241.47c-7.05-1.47-15.2-.44-22.4-.48-1.16,0-1.74.89-1.74,1.8,0,.9.57,1.8,1.74,1.8,7.2-.04,15.35.99,22.4-.48,1.3-.27,1.3-2.36,0-2.63Z"/>
    <path class="cls-4" d="M313.78,190.16c-6.17-1.39-13.29-.42-19.59-.46-1.02,0-1.52.85-1.52,1.7,0,.85.5,1.71,1.52,1.7,6.3-.03,13.42.94,19.59-.46,1.14-.26,1.14-2.23,0-2.49Z"/>
    <path class="cls-4" d="M644.78,276.24c-7.93-1.65-17.08-.5-25.17-.54-1.31,0-1.95,1.01-1.95,2.02,0,1.01.65,2.02,1.95,2.02,8.1-.04,17.25,1.11,25.17-.54,1.47-.31,1.47-2.65,0-2.95Z"/>
    <path class="cls-4" d="M643.86,241.47c-7.05-1.47-15.2-.44-22.4-.48-1.16,0-1.74.89-1.74,1.8,0,.9.57,1.8,1.74,1.8,7.2-.04,15.35.99,22.4-.48,1.3-.27,1.3-2.36,0-2.63Z"/>
    <path class="cls-4" d="M642.1,189.16c-6.17-1.39-13.29-.42-19.59-.46-1.02,0-1.52.85-1.52,1.7,0,.85.5,1.71,1.52,1.7,6.3-.03,13.42.94,19.59-.46,1.14-.26,1.14-2.23,0-2.49Z"/>
    <path class="cls-4" d="M643.08,159.52c-3.72-1.31-8.23-.65-12.14-.67-3.6-.02-7.46-.72-10.76.85-.86.41-.86,1.86,0,2.27,3.3,1.57,7.17.88,10.76.85,3.92-.02,8.42.64,12.14-.67,1.29-.46,1.29-2.17,0-2.63Z"/>
    <path class="cls-4" d="M314.86,159.52c-3.72-1.31-8.23-.65-12.14-.67-3.6-.02-7.46-.72-10.76.85-.86.41-.86,1.86,0,2.27,3.3,1.57,7.17.88,10.76.85,3.92-.02,8.42.64,12.14-.67,1.29-.46,1.29-2.17,0-2.63Z"/>
    <path class="cls-4" d="M331.71,158.46c.18-.14.18-.5,0-.63-.03-.02-.07-.03-.1-.05-.07-.09-.18-.14-.33-.16-.53-.17-1.13-.08-1.7-.08-1.11,0-2.22,0-3.34,0-.4,0-.6.31-.6.62,0,.31.2.62.6.62,1,0,2,0,3,0,.63,0,1.38.12,1.99-.07.17-.01.3-.08.38-.18.03-.02.07-.02.09-.04Z"/>
    <path class="cls-4" d="M331.71,148.4c.18-.14.18-.5,0-.63-.03-.02-.07-.03-.1-.05-.07-.09-.18-.14-.33-.16-.53-.17-1.13-.08-1.7-.08-1.11,0-2.22,0-3.34,0-.4,0-.6.31-.6.62,0,.31.2.62.6.62,1,0,2,0,3,0,.63,0,1.38.12,1.99-.07.17-.01.3-.08.38-.18.03-.02.07-.02.09-.05Z"/>
    <path class="cls-4" d="M366.29,154.72c.18-.14.18-.5,0-.63-.03-.02-.07-.03-.1-.05-.07-.09-.18-.14-.33-.16-.53-.17-1.13-.08-1.7-.08-1.11,0-2.22,0-3.34,0-.4,0-.6.31-.6.62,0,.31.2.62.6.62,1,0,2,0,3,0,.63,0,1.38.12,1.99-.07.17-.01.3-.08.38-.18.03-.02.07-.02.09-.05Z"/>
    <path class="cls-4" d="M366.29,144.66c.18-.14.18-.5,0-.63-.03-.02-.07-.03-.1-.05-.07-.09-.18-.14-.33-.16-.53-.17-1.13-.08-1.7-.08-1.11,0-2.22,0-3.34,0-.4,0-.6.31-.6.62,0,.31.2.62.6.62,1,0,2,0,3,0,.63,0,1.38.12,1.99-.07.17-.01.3-.08.38-.18.03-.02.07-.02.09-.04Z"/>
    <path class="cls-4" d="M406.56,150.37c-11.26-1.73-23.11-.28-34.46-.17-3.75.04-3.75,5.89,0,5.82,11.35.12,23.2,1.56,34.46-.17,2.73-.42,2.73-5.07,0-5.48Z"/>
    <path class="cls-4" d="M602.07,158.46c-.18-.14-.18-.5,0-.63.03-.02.07-.03.1-.05.07-.09.18-.14.33-.16.53-.17,1.13-.08,1.7-.08,1.11,0,2.22,0,3.34,0,.4,0,.6.31.6.62,0,.31-.2.62-.6.62-1,0-2,0-3,0-.63,0-1.38.12-1.99-.07-.17-.01-.3-.08-.38-.18-.03-.02-.07-.02-.09-.04Z"/>
    <path class="cls-4" d="M602.07,148.4c-.18-.14-.18-.5,0-.63.03-.02.07-.03.1-.05.07-.09.18-.14.33-.16.53-.17,1.13-.08,1.7-.08,1.11,0,2.22,0,3.34,0,.4,0,.6.31.6.62,0,.31-.2.62-.6.62-1,0-2,0-3,0-.63,0-1.38.12-1.99-.07-.17-.01-.3-.08-.38-.18-.03-.02-.07-.02-.09-.05Z"/>
    <path class="cls-4" d="M567.49,154.72c-.18-.14-.18-.5,0-.63.03-.02.07-.03.1-.05.07-.09.18-.14.33-.16.53-.17,1.13-.08,1.7-.08,1.11,0,2.22,0,3.34,0,.4,0,.6.31.6.62,0,.31-.2.62-.6.62-1,0-2,0-3,0-.63,0-1.38.12-1.99-.07-.17-.01-.3-.08-.38-.18-.03-.02-.07-.02-.09-.05Z"/>
    <path class="cls-4" d="M567.49,144.66c-.18-.14-.18-.5,0-.63.03-.02.07-.03.1-.05.07-.09.18-.14.33-.16.53-.17,1.13-.08,1.7-.08,1.11,0,2.22,0,3.34,0,.4,0,.6.31.6.62,0,.31-.2.62-.6.62-1,0-2,0-3,0-.63,0-1.38.12-1.99-.07-.17-.01-.3-.08-.38-.18-.03-.02-.07-.02-.09-.04Z"/>
    <path class="cls-4" d="M527.22,150.37c11.26-1.73,23.11-.28,34.46-.17,3.75.04,3.75,5.89,0,5.82-11.35.12-23.2,1.56-34.46-.17-2.73-.42-2.73-5.07,0-5.48Z"/>
    <path class="cls-4" d="M515.83,143.3c-.14-1.98-1.17-4.03-2.66-4.85-2.23-1.22-7.31-.58-9.82-.59-3.33-.01-6.66.12-9.99.12-8.22-.01-16.44-.05-24.66-.02-6.35.02-12.7.04-19.05.07-7.55-.28-15.24-.53-22.74.08-2.51,0-5.02.02-7.53.03-.02,0-.04,0-.06,0,0,0-.14,0-.14,0-2.19,0-2.15,2.35-2.09,3.96.14,3.66-.71,6.21,5.83,5.96,5.72-.22,11.28.09,16.98.12,8.16.05,16.31-.05,24.46-.13s16.31-.06,24.47-.04c5.99.02,11.97.62,17.96.32,2.28-.11,5.67.39,7.65-1.16,1.09-.86,1.5-2.34,1.39-3.85Z"/>
    <path class="cls-4" d="M364.42,173.48c-12.54,2.57-25.27,4.03-37.57,7.68-.99.29-.82,1.84.25,1.81,5.75-.12,11.7-2.01,17.35-3.07,6.91-1.29,13.6-3.28,20.46-4.68,1.14-.23.65-1.97-.48-1.73Z"/>
    <path class="cls-4" d="M569.79,173.48c12.54,2.57,25.27,4.03,37.57,7.68.99.29.82,1.84-.25,1.81-5.75-.12-11.7-2.01-17.35-3.07-6.91-1.29-13.6-3.28-20.46-4.68-1.14-.23-.65-1.97.48-1.73Z"/>
  </g>
  <path class="cls-4" d="M672.45,184.48c-14.97,0-37.96,118.28-4.44,132.1l-2.49,24.53h13.86l-2.49-24.53c33.53-13.82,10.53-132.1-4.44-132.1Z"/>
  <path class="cls-7" d="M17.94,213.27c-5.49,0-13.92,43.36-1.63,48.42l-.91,8.99h5.08l-.91-8.99c12.29-5.07,3.86-48.42-1.63-48.42Z"/>
  <path class="cls-7" d="M46.04,229.94c-3.56,0-9.02,28.1-1.05,31.39l-.59,5.83h3.29l-.59-5.83c7.97-3.28,2.5-31.39-1.05-31.39Z"/>
  <path class="cls-7" d="M108.45,273.36l-.59,5.83h3.29l-.59-5.83"/>
  <path class="cls-7" d="M270.05,277.47c-3.56,0-9.02,28.1-1.05,31.39l-.59,5.83h3.29l-.59-5.83c7.97-3.28,2.5-31.39-1.05-31.39Z"/>
  <path class="cls-7" d="M735.07,229.52c-3.56,0-9.02,28.1-1.05,31.39l-.59,5.83h3.29l-.59-5.83c7.97-3.28,2.5-31.39-1.05-31.39Z"/>
  <path class="cls-4" d="M715.94,240.37c-9.63,0-24.42,76.07-2.85,84.96l-1.6,15.77h8.91l-1.6-15.77c21.56-8.89,6.78-84.96-2.85-84.96Z"/>
  <path class="cls-4" d="M149.09,192.52c-14.27,0-36.18,112.73-4.23,125.9l-2.37,23.38h13.2l-2.37-23.38c31.95-13.17,10.04-125.9-4.23-125.9Z"/>
  <path class="cls-4" d="M733.1,339.38c.12-.13.25-.25.38-.38.19-.21-.1-.5-.31-.31-.27.24-.55.47-.82.69h-.12c.3-.56.54-1.15.74-1.6.12-.26-.23-.48-.39-.23-.28.45-.56.89-.86,1.33.21-1.02.21-2.11.08-2.99-.04-.23-.4-.17-.4.05.03.98-.13,1.89-.45,2.81-.05.16-.12.31-.19.47-.34-.38-.58-.82-.71-1.34-.02-.1-.17-.1-.2,0-.12.46.04,1,.33,1.5h-38.54c.37-.38.74-.76,1.09-1.15.21-.23-.11-.56-.34-.34-.46.44-.97.84-1.43,1.28.64-1.44.95-3.04.88-4.48-.01-.28-.44-.29-.44,0-.03,1.4-.42,2.53-.99,3.58.24-1.67.07-3.42-.63-4.83-.07-.14-.32-.04-.26.11.68,1.84.33,3.41-.18,5.01-.29-.5-.62-.96-.91-1.31-.11-.14-.34.04-.25.19.38.58.68,1.19.92,1.84-.01.04-.02.07-.04.11h-29.17c.22-.85.63-1.61,1.47-1.63.18,0,.22-.26.04-.31-.64-.17-1.19.12-1.6.61.32-1.49,1.03-2.83,2.46-3.57.22-.12.07-.51-.17-.41-1.47.58-2.55,2-3.12,3.62-.19-.76-.43-1.49-.69-2.18-.06-.17-.32-.11-.27.08.25,1.12.43,2.22.58,3.33-.16-.38-.33-.76-.52-1.1-.12-.21-.42-.03-.32.19.21.45.37.91.51,1.38h-373.69c.25-.54.52-1.08.77-1.64.14-.31-.22-.63-.49-.37-.35.34-.67.76-.92,1.22-.31-1.72-.95-3.45-1.46-5-.1-.3-.54-.18-.47.13.27,1.31.58,2.61.82,3.92.1.53.15,1.07.19,1.61-.3-.38-.7-.7-1.05-1-.48-.41-.98-.81-1.51-1.14-.18-.11-.36.14-.22.29.43.43.89.83,1.32,1.27.22.22.41.47.62.71h-30.57c.33-.41.68-.81,1.12-1.15.21-.17-.06-.5-.29-.37-.67.38-1.27.91-1.79,1.52h-.76c.46-1.21,1-2.37,1.97-3.44.24-.27-.09-.78-.41-.53-1.27.97-2.25,2.41-2.87,3.97h0c-.06-.2-.13-.4-.19-.61-.23-.72-.4-1.47-.63-2.19-.08-.25-.43-.2-.45.06-.05.68.12,1.39.24,2.06.04.21.06.43.09.65-.39-.56-1.05-1.04-1.59-1.28-.19-.08-.32.15-.16.27.39.29.72.64,1.01,1.03h-79.14c.63-.75,1.44-1.34,2.44-1.66.58-.18.34-1.02-.25-.9-1.15.23-2.45.93-3.36,1.9.01-.05.02-.1.04-.15.26-.77.72-1.47.96-2.25.07-.23-.21-.31-.34-.2,0,0,0,0,0,0-.42.47-.85,1.09-1.19,1.77-.25-1.65-.65-3.63-1.88-4.87-.16-.16-.44-.04-.44.18,0,.15,0,.29,0,.44,0,.15.15.21.27.18.66,1.33.91,2.74.99,4.24.02.44-.02.87-.07,1.3h-.09c-.19-.32-.4-.62-.57-.83-.69-.88-1.8-2.12-2.96-2.35-.13-.03-.25.13-.14.24.77.73,1.54,1.29,2.16,2.18.17.25.32.5.44.77h-83.54c.11-.27.2-.54.31-.74.48-.9,1.15-1.71,2.05-2.21.15-.08.04-.32-.12-.3-.9.12-1.97.63-2.81,1.34,0-.27,0-.54.03-.8.16-1.14.44-2.25.78-3.35.07-.24-.24-.5-.41-.25-.68,1.04-1.48,2.57-1.85,4.09-.64-.73-1.4-1.27-2.42-1.35-.44-.03-.68.58-.23.77.85.37,1.42,1.04,1.8,1.86.12.26.2.6.3.94h-20.48c.15-.48.26-.98.43-1.34.45-.98,1.13-1.77,2.13-2.2.52-.23.24-.95-.28-.91-1.19.09-2.1.73-2.85,1.59-.43-1.8-1.38-3.6-2.18-4.83-.19-.3-.57.02-.48.3.4,1.3.74,2.61.93,3.96.04.31.05.63.04.95-.99-.84-2.25-1.44-3.32-1.58-.18-.02-.31.26-.14.35,1.07.59,1.86,1.55,2.43,2.61.16.3.3.71.46,1.1H0v39.76h754.16v-39.76h-21.06Z"/>
</svg>