<?xml version="1.0" encoding="UTF-8"?><svg id="OBJECTS" xmlns="http://www.w3.org/2000/svg" width="754.16" height="210.2" viewBox="0 0 754.16 210.2"><defs><style>.cls-1{fill:#c38154;}.cls-1,.cls-2,.cls-3,.cls-4,.cls-5,.cls-6{stroke-width:0px;}.cls-7{stroke:#252424;stroke-miterlimit:10;}.cls-7,.cls-3{fill:#561c24;}.cls-2{fill:#884a39;}.cls-4{fill:#6a213e;}.cls-5{fill:#ffc26f;}.cls-6{fill:#c3725d;}</style></defs><path class="cls-1" d="M754.16,99.5c-50.17-22.66-102.48-38.83-157.08-38-130.14,1.99-250.63,100.57-378.83,78.11-44.71-7.83-85.67-30.06-129.83-40.53-28.81-6.83-61.41-7.25-88.42,3.16v107.01h754.16v-109.74Z"/><path class="cls-5" d="M477.47,81.99v-8.29s-.13-3.3-3.2-5.09c-3.07,1.79-3.2,5.09-3.2,5.09v8.29h6.39Z"/><path class="cls-5" d="M498.67,81.99v-8.29s-.13-3.3-3.2-5.09c-3.07,1.79-3.2,5.09-3.2,5.09v8.29h6.39Z"/><path class="cls-7" d="M468.71,73.69s-.13-3.3-3.2-5.09c-3.07,1.79-3.2,5.09-3.2,5.09v8.29h6.39v-8.29Z"/><path class="cls-7" d="M489.41,81.99v-8.29s-.17-3.3-4.35-5.09c-4.18,1.79-4.35,5.09-4.35,5.09v8.29h8.7Z"/><path class="cls-7" d="M507.44,81.99v-8.29s-.13-3.3-3.2-5.09c-3.07,1.79-3.2,5.09-3.2,5.09v8.29h6.39Z"/><path class="cls-3" d="M531.25,75.68s-.09-1.33-2.28-2.05c-2.19.72-2.28,2.05-2.28,2.05v6.23h4.56v-6.23Z"/><path class="cls-5" d="M530.23,88.14c-7.59,2.86-7.91,8.13-7.91,8.13v24.75h15.81v-24.75s-.32-5.27-7.91-8.13Z"/><path class="cls-3" d="M530.23,132.62c-7.59,3.1-7.91,8.81-7.91,8.81v26.81h15.81v-26.81s-.32-5.71-7.91-8.81Z"/><path class="cls-5" d="M536.52,75.68s-.07-1.33-1.75-2.05c-1.68.72-1.75,2.05-1.75,2.05v6.23h3.5v-6.23Z"/><path class="cls-3" d="M553.05,92.57c-6.58,2.86-6.85,6.94-6.85,6.94v21.51h13.7v-20.32s-.27-5.27-6.85-8.13Z"/><path class="cls-5" d="M553.05,132.62c-6.58,3.1-6.85,8.81-6.85,8.81v26.81h13.7v-26.81s-.27-5.71-6.85-8.81Z"/><path class="cls-5" d="M577.89,80.56c-1.25,0-2.27,1.02-2.27,2.27h.01v7.32h4.52v-7.32h.01c0-1.25-1.02-2.27-2.27-2.27Z"/><path class="cls-5" d="M524.98,75.68s-.07-1.33-1.75-2.05c-1.68.72-1.75,2.05-1.75,2.05v6.23h3.5v-6.23Z"/><path class="cls-5" d="M394.04,80.56c-1.25,0-2.27,1.02-2.27,2.27h.01v7.32h4.52v-7.32h.01c0-1.25-1.02-2.27-2.27-2.27Z"/><path class="cls-5" d="M460.69,168.24h14.49v-19.51s.4-7.5,9.89-11.57c9.49,4.07,9.89,11.57,9.89,11.57v19.51h14.49v-42.38h-48.75v42.38Z"/><path class="cls-5" d="M437.73,75.68s-.07-1.33-1.75-2.05c-1.68.72-1.75,2.05-1.75,2.05v6.23h3.5v-6.23Z"/><path class="cls-5" d="M417.7,132.62c-6.58,3.1-6.85,8.81-6.85,8.81v26.81h13.7v-26.81s-.27-5.71-6.85-8.81Z"/><path class="cls-3" d="M417.7,92.57c-6.58,2.86-6.85,8.13-6.85,8.13v20.32h13.7v-21.51s-.27-4.08-6.85-6.94Z"/><path class="cls-3" d="M485.06,85.44c-23.4,10.03-24.37,28.53-24.37,28.53v9.58h14.49v-18.35s.4-7.5,9.89-11.57c9.49,4.07,9.89,11.57,9.89,11.57v18.35h14.49v-9.58s-.98-18.5-24.37-28.53Z"/><path class="cls-3" d="M440.52,132.62c-7.59,3.1-7.91,8.81-7.91,8.81v26.81h15.81v-26.81s-.32-5.71-7.91-8.81Z"/><path class="cls-5" d="M447.52,73.63c-1.68.72-1.75,2.05-1.75,2.05v6.23h3.5v-6.23s-.07-1.33-1.75-2.05Z"/><path class="cls-4" d="M444.06,75.68s-.09-1.33-2.28-2.05c-2.19.72-2.28,2.05-2.28,2.05v6.23h4.56v-6.23Z"/><path class="cls-5" d="M440.52,88.14c-7.59,2.86-7.91,8.13-7.91,8.13v24.75h15.81v-24.75s-.32-5.27-7.91-8.13Z"/><path class="cls-3" d="M428.36,64.14c0-.58-.47-1.05-1.05-1.05s-1.05.47-1.05,1.05.47,1.05,1.05,1.05,1.05-.47,1.05-1.05Z"/><path class="cls-3" d="M428.75,61.64c0-.8-.65-1.45-1.45-1.45s-1.45.65-1.45,1.45.65,1.45,1.45,1.45,1.45-.65,1.45-1.45Z"/><path class="cls-3" d="M428.44,59.38c0-.27-.18-.51-.46-.66l-.67-6.95-.67,6.95c-.28.15-.46.39-.46.66,0,.45.5.82,1.13.82s1.13-.37,1.13-.82Z"/><path class="cls-3" d="M395.09,67.28c0-.58-.47-1.05-1.05-1.05s-1.05.47-1.05,1.05.47,1.05,1.05,1.05,1.05-.47,1.05-1.05Z"/><circle class="cls-3" cx="394.04" cy="64.78" r="1.45"/><path class="cls-3" d="M395.17,62.52c0-.27-.18-.51-.46-.66l-.67-6.95-.67,6.95c-.28.15-.46.39-.46.66,0,.45.5.82,1.13.82s1.13-.37,1.13-.82Z"/><path class="cls-3" d="M443.3,58.38c0-.84-.68-1.53-1.53-1.53s-1.53.68-1.53,1.53.68,1.53,1.53,1.53,1.53-.68,1.53-1.53Z"/><path class="cls-3" d="M443.88,54.75c0-1.16-.94-2.1-2.1-2.1s-2.1.94-2.1,2.1.94,2.1,2.1,2.1,2.1-.94,2.1-2.1Z"/><path class="cls-3" d="M443.42,51.45c0-.39-.26-.74-.67-.96l-.97-10.11-.97,10.11c-.4.22-.67.56-.67.96,0,.66.73,1.19,1.64,1.19s1.64-.53,1.64-1.19Z"/><path class="cls-3" d="M489.44,27.8c0-2.25-1.82-4.07-4.07-4.07s-4.07,1.82-4.07,4.07,1.82,4.07,4.07,4.07,4.07-1.82,4.07-4.07Z"/><path class="cls-3" d="M488.55,21.42c0-.76-.51-1.43-1.29-1.85l-1.88-19.57-1.88,19.57c-.78.42-1.29,1.09-1.29,1.85,0,1.28,1.42,2.31,3.17,2.31s3.17-1.03,3.17-2.31Z"/><path class="cls-3" d="M409.1,66.23c0-.58-.47-1.05-1.05-1.05s-1.05.47-1.05,1.05.47,1.05,1.05,1.05,1.05-.47,1.05-1.05Z"/><path class="cls-3" d="M409.5,63.73c0-.8-.65-1.45-1.45-1.45s-1.45.65-1.45,1.45.65,1.45,1.45,1.45,1.45-.65,1.45-1.45Z"/><path class="cls-3" d="M409.18,61.47c0-.27-.18-.51-.46-.66l-.67-6.95-.67,6.95c-.28.15-.46.39-.46.66,0,.45.5.82,1.13.82s1.13-.37,1.13-.82Z"/><path class="cls-3" d="M578.94,67.28c0-.58-.47-1.05-1.05-1.05s-1.05.47-1.05,1.05.47,1.05,1.05,1.05,1.05-.47,1.05-1.05Z"/><path class="cls-3" d="M579.33,64.78c0-.8-.65-1.45-1.45-1.45s-1.45.65-1.45,1.45.65,1.45,1.45,1.45,1.45-.65,1.45-1.45Z"/><path class="cls-3" d="M579.01,62.52c0-.27-.18-.51-.46-.66l-.67-6.95-.67,6.95c-.28.15-.46.39-.46.66,0,.45.5.82,1.13.82s1.13-.37,1.13-.82Z"/><path class="cls-3" d="M544.49,64.14c0-.58-.47-1.05-1.05-1.05s-1.05.47-1.05,1.05.47,1.05,1.05,1.05,1.05-.47,1.05-1.05Z"/><path class="cls-3" d="M544.89,61.64c0-.8-.65-1.45-1.45-1.45s-1.45.65-1.45,1.45.65,1.45,1.45,1.45,1.45-.65,1.45-1.45Z"/><path class="cls-3" d="M544.57,59.38c0-.27-.18-.51-.46-.66l-.67-6.95-.67,6.95c-.28.15-.46.39-.46.66,0,.45.5.82,1.13.82s1.13-.37,1.13-.82Z"/><path class="cls-3" d="M530.5,58.38c0-.84-.68-1.53-1.53-1.53s-1.53.68-1.53,1.53.68,1.53,1.53,1.53,1.53-.68,1.53-1.53Z"/><path class="cls-3" d="M531.08,54.75c0-1.16-.94-2.1-2.1-2.1s-2.1.94-2.1,2.1.94,2.1,2.1,2.1,2.1-.94,2.1-2.1Z"/><path class="cls-3" d="M530.61,51.45c0-.39-.26-.74-.67-.96l-.97-10.11-.97,10.11c-.4.22-.67.56-.67.96,0,.66.73,1.19,1.64,1.19s1.64-.53,1.64-1.19Z"/><path class="cls-3" d="M563.75,66.23c0-.58-.47-1.05-1.05-1.05s-1.05.47-1.05,1.05.47,1.05,1.05,1.05,1.05-.47,1.05-1.05Z"/><path class="cls-3" d="M564.15,63.73c0-.8-.65-1.45-1.45-1.45s-1.45.65-1.45,1.45.65,1.45,1.45,1.45,1.45-.65,1.45-1.45Z"/><path class="cls-3" d="M563.83,61.47c0-.27-.18-.51-.46-.66l-.67-6.95-.67,6.95c-.28.15-.46.39-.46.66,0,.45.5.82,1.13.82s1.13-.37,1.13-.82Z"/><path class="cls-2" d="M583.35,168.24l-.45-25.52h.51c.65,0,1.18-.48,1.18-1.07,0-.17-.05-.32-.13-.46.63-.02,1.13-.49,1.13-1.07s-.53-1.07-1.18-1.07h-1.58l-.29-16.11h.34c.59,0,1.06-.43,1.06-.97,0-.15-.05-.29-.11-.42.57-.02,1.02-.44,1.02-.96s-.48-.97-1.06-.97h-1.31l-.47-26.53h.28c.52,0,.94-.38.94-.86,0-.13-.04-.26-.1-.37.5-.02.9-.39.9-.85s-.42-.86-.94-.86h-.42v-14.78h1.11c.49,0,.9-.4.9-.9,0-.43-.31-.77-.71-.86-.42-2.99-2.98-5.28-6.08-5.28s-5.66,2.3-6.08,5.28c-.4.09-.71.43-.71.86,0,.49.4.9.9.9h1.11v14.78h-.42c-.52,0-.94.38-.94.86s.4.83.9.85c-.06.11-.1.24-.1.37,0,.47.42.86.94.86h.21l-.45,26.53h-1.26c-.59,0-1.06.43-1.06.97s.46.94,1.02.96c-.07.13-.11.27-.11.42,0,.54.48.97,1.06.97h.29l-.27,16.11h-1.55c-.65,0-1.18.48-1.18,1.07s.5,1.04,1.13,1.07c-.08.14-.13.3-.13.46,0,.59.53,1.07,1.18,1.07h.48l-.43,25.52h-8.78v-42.38h1.69v-2.32h-1.69v-50.39h.32c.13,0,.23-.1.23-.23v-5.42c0-.13-.1-.23-.23-.23h-2.53c-.13,0-.23.1-.23.23v5.42c0,.13.1.23.23.23h.32v12.78l-17.36-3.63v-11.24h.32c.13,0,.23-.1.23-.23v-5.42c0-.13-.1-.23-.23-.23h-2.53c-.13,0-.23.1-.23.23v5.42c0,.13.1.23.23.23h.32v10.85h-.04s-4.24,0-4.24,0v-10.18h.93c.1,0,.18-.08.18-.18v-2.53c0-.1-.08-.18-.18-.18h-1.24c0-4.93-4-8.94-8.94-8.94s-8.94,4-8.94,8.94h-1.24c-.1,0-.18.08-.18.18v2.53c0,.1.08.18.18.18h.93v10.18h-1.73v.08h-7.54v-15.38h1.19c.3,0,.55-.25.55-.55v-3.08c0-.3-.25-.55-.55-.55h-1.22c0-13.37-10.46-24.29-23.65-25.02.92-.5,1.54-1.46,1.54-2.58,0-1.63-1.32-2.96-2.96-2.96s-2.96,1.32-2.96,2.96c0,1.12.63,2.08,1.54,2.58-13.18.73-23.65,11.65-23.65,25.02h-1.84c-.3,0-.55.25-.55.55v3.08c0,.3.25.55.55.55h1.19v15.38h-6.91v-.08h-1.73v-10.18h.93c.1,0,.18-.08.18-.18v-2.53c0-.1-.08-.18-.18-.18h-1.24c0-4.93-4-8.94-8.94-8.94s-8.94,4-8.94,8.94h-1.24c-.1,0-.18.08-.18.18v2.53c0,.1.08.18.18.18h.93v10.18h-4.28s0-10.84,0-10.84h.32c.13,0,.23-.1.23-.23v-5.42c0-.13-.1-.23-.23-.23h-2.53c-.13,0-.23.1-.23.23v5.42c0,.13.1.23.23.23h.32v11.24l-17.36,3.63v-12.78h.32c.13,0,.23-.1.23-.23v-5.42c0-.13-.1-.23-.23-.23h-2.53c-.13,0-.23.1-.23.23v5.42c0,.13.1.23.23.23h.32v50.39h-1.69v2.32h1.69v42.38h-7.6l-.45-25.52h.51c.65,0,1.18-.48,1.18-1.07,0-.17-.05-.32-.13-.46.63-.02,1.13-.49,1.13-1.07s-.53-1.07-1.18-1.07h-1.58l-.29-16.11h.34c.59,0,1.06-.43,1.06-.97,0-.15-.05-.29-.11-.42.57-.02,1.02-.44,1.02-.96s-.48-.97-1.06-.97h-1.31l-.47-26.53h.28c.52,0,.94-.38.94-.86,0-.13-.04-.26-.1-.37.5-.02.9-.39.9-.85s-.42-.86-.94-.86h-.42v-14.78h1.11c.49,0,.9-.4.9-.9,0-.43-.31-.77-.71-.86-.42-2.99-2.98-5.28-6.08-5.28s-5.66,2.3-6.08,5.28c-.4.09-.71.43-.71.86,0,.49.4.9.9.9h1.11v14.78h-.42c-.52,0-.94.38-.94.86s.4.83.9.85c-.06.11-.1.24-.1.37,0,.47.42.86.94.86h.21l-.45,26.53h-1.26c-.59,0-1.06.43-1.06.97s.46.94,1.02.96c-.07.13-.11.27-.11.42,0,.54.48.97,1.06.97h.29l-.27,16.11h-1.55c-.65,0-1.18.48-1.18,1.07s.5,1.04,1.13,1.07c-.08.14-.13.3-.13.46,0,.59.53,1.07,1.18,1.07h.48l-.43,25.52h-6.61v6.48h206.19v-6.48h-4.81ZM396.3,82.83v7.32h-4.52v-7.32h-.01c0-1.25,1.02-2.27,2.27-2.27s2.27,1.02,2.27,2.27h-.01ZM424.55,168.24h-13.7v-26.81s.27-5.71,6.85-8.81c6.58,3.1,6.85,8.81,6.85,8.81v26.81ZM424.55,121.02h-13.7v-20.32s.27-5.27,6.85-8.13c6.58,2.86,6.85,6.94,6.85,6.94v21.51ZM439.5,75.68s.09-1.33,2.28-2.05c2.19.72,2.28,2.05,2.28,2.05v6.23h-4.56v-6.23ZM434.23,75.68s.07-1.33,1.75-2.05c1.68.72,1.75,2.05,1.75,2.05v6.23h-3.5v-6.23ZM448.43,168.24h-15.81v-26.81s.32-5.71,7.91-8.81c7.59,3.1,7.91,8.81,7.91,8.81v26.81ZM448.43,121.02h-15.81v-24.75s.32-5.27,7.91-8.13c7.59,2.86,7.91,8.13,7.91,8.13v24.75ZM449.27,81.91h-3.5v-6.23s.07-1.33,1.75-2.05c1.68.72,1.75,2.05,1.75,2.05v6.23ZM504.24,68.6c3.07,1.79,3.2,5.09,3.2,5.09v8.29h-6.39v-8.29s.13-3.3,3.2-5.09ZM495.48,68.6c3.07,1.79,3.2,5.09,3.2,5.09v8.29h-6.39v-8.29s.13-3.3,3.2-5.09ZM485.06,68.6c4.18,1.79,4.35,5.09,4.35,5.09v8.29h-8.7v-8.29s.17-3.3,4.35-5.09ZM474.28,68.6c3.07,1.79,3.2,5.09,3.2,5.09v8.29h-6.39v-8.29s.13-3.3,3.2-5.09ZM462.31,73.69s.13-3.3,3.2-5.09c3.07,1.79,3.2,5.09,3.2,5.09v8.29h-6.39v-8.29ZM509.43,168.24h-14.49v-19.51s-.4-7.5-9.89-11.57c-9.49,4.07-9.89,11.57-9.89,11.57v19.51h-14.49v-42.38h48.75v42.38ZM509.43,123.55h-14.49v-18.35s-.4-7.5-9.89-11.57c-9.49,4.07-9.89,11.57-9.89,11.57v18.35h-14.49v-9.58s.97-18.5,24.37-28.53c23.4,10.03,24.37,28.53,24.37,28.53v9.58ZM533.02,75.68s.07-1.33,1.75-2.05c1.68.72,1.75,2.05,1.75,2.05v6.23h-3.5v-6.23ZM526.69,75.68s.09-1.33,2.28-2.05c2.19.72,2.28,2.05,2.28,2.05v6.23h-4.56v-6.23ZM521.48,75.68s.07-1.33,1.75-2.05c1.68.72,1.75,2.05,1.75,2.05v6.23h-3.5v-6.23ZM538.14,168.24h-15.81v-26.81s.32-5.71,7.91-8.81c7.59,3.1,7.91,8.81,7.91,8.81v26.81ZM538.14,121.02h-15.81v-24.75s.32-5.27,7.91-8.13c7.59,2.86,7.91,8.13,7.91,8.13v24.75ZM559.9,168.24h-13.7v-26.81s.27-5.71,6.85-8.81c6.58,3.1,6.85,8.81,6.85,8.81v26.81ZM559.9,121.02h-13.7v-21.51s.27-4.08,6.85-6.94c6.58,2.86,6.85,8.13,6.85,8.13v20.32ZM580.14,82.83v7.32h-4.52v-7.32h-.01c0-1.25,1.02-2.27,2.27-2.27s2.27,1.02,2.27,2.27h-.01Z"/><path class="cls-3" d="M564.91,122.74c-26.46-.13-52.92-.09-79.38-.08-13,0-26,0-38.99,0-6.5,0-13,0-19.5,0-6.91,0-14.03-.5-20.89.38-1.89.24-1.89,2.7,0,2.94,6.41.82,13.04.38,19.5.38,6.5,0,13,0,19.5,0,13.46,0,26.92,0,40.39,0,22.77,0,45.53.03,68.3-.04,1.32.02,2.64.02,3.95-.01,2.38,0,4.75-.01,7.13-.03,2.3.01,2.3-3.56,0-3.57Z"/><path class="cls-3" d="M542.05,81.47c-18.89-.04-37.79-.03-56.68-.02-9.28,0-18.56,0-27.84,0-4.64,0-9.28,0-13.92,0-4.93,0-10.02-.15-14.92.11-1.35.07-1.35.8,0,.87,4.58.24,9.31.11,13.92.11,4.64,0,9.28,0,13.92,0,9.61,0,19.22,0,28.84,0,16.25,0,32.51,0,48.76-.01.94,0,1.88,0,2.82,0,1.7,0,3.4,0,5.09,0,1.64,0,1.64-1.06,0-1.06Z"/><path class="cls-3" d="M401.15,139.15c-4.44-.92-9.56-.28-14.1-.3-.73,0-1.09.56-1.09,1.13,0,.57.36,1.13,1.09,1.13,4.53-.02,9.66.62,14.1-.3.82-.17.82-1.48,0-1.65Z"/><path class="cls-3" d="M400.64,119.67c-3.95-.82-8.51-.25-12.54-.27-.65,0-.97.5-.97,1.01,0,.5.32,1.01.97,1.01,4.03-.02,8.59.55,12.54-.27.73-.15.73-1.32,0-1.47Z"/><path class="cls-3" d="M399.65,90.94c-3.45-.78-7.44-.24-10.97-.26-.57,0-.85.48-.85.95,0,.48.28.96.85.95,3.53-.02,7.52.52,10.97-.26.64-.14.64-1.25,0-1.4Z"/><path class="cls-3" d="M585.01,139.15c-4.44-.92-9.56-.28-14.1-.3-.73,0-1.09.56-1.09,1.13,0,.57.36,1.13,1.09,1.13,4.53-.02,9.66.62,14.1-.3.82-.17.82-1.48,0-1.65Z"/><path class="cls-3" d="M584.5,119.67c-3.95-.82-8.51-.25-12.54-.27-.65,0-.97.5-.97,1.01,0,.5.32,1.01.97,1.01,4.03-.02,8.59.55,12.54-.27.73-.15.73-1.32,0-1.47Z"/><path class="cls-3" d="M583.51,90.38c-3.45-.78-7.44-.24-10.97-.26-.57,0-.85.48-.85.95,0,.48.28.96.85.95,3.53-.02,7.52.52,10.97-.26.64-.14.64-1.25,0-1.4Z"/><path class="cls-3" d="M584.07,73.79c-2.08-.74-4.61-.36-6.8-.38-2.01-.01-4.18-.4-6.03.48-.48.23-.48,1.04,0,1.27,1.85.88,4.01.49,6.03.48,2.19-.01,4.72.36,6.8-.38.72-.26.72-1.21,0-1.47Z"/><path class="cls-3" d="M400.26,73.79c-2.08-.74-4.61-.36-6.8-.38-2.01-.01-4.18-.4-6.03.48-.48.23-.48,1.04,0,1.27,1.85.88,4.01.49,6.03.48,2.19-.01,4.72.36,6.8-.38.72-.26.72-1.21,0-1.47Z"/><path class="cls-3" d="M409.7,73.19c.1-.08.1-.28,0-.35-.02-.01-.04-.02-.06-.03-.04-.05-.1-.08-.18-.09-.29-.1-.63-.05-.95-.05-.62,0-1.25,0-1.87,0-.23,0-.34.17-.34.35,0,.17.11.35.34.35.56,0,1.12,0,1.68,0,.35,0,.77.07,1.12-.04.1,0,.17-.04.21-.1.02-.01.04-.01.05-.03Z"/><path class="cls-3" d="M409.7,67.55c.1-.08.1-.28,0-.35-.02-.01-.04-.02-.06-.03-.04-.05-.1-.08-.18-.09-.29-.1-.63-.05-.95-.05-.62,0-1.25,0-1.87,0-.23,0-.34.17-.34.35,0,.17.11.35.34.35.56,0,1.12,0,1.68,0,.35,0,.77.07,1.12-.04.1,0,.17-.04.21-.1.02-.01.04-.01.05-.03Z"/><path class="cls-3" d="M429.06,71.09c.1-.08.1-.28,0-.35-.02-.01-.04-.02-.06-.03-.04-.05-.1-.08-.18-.09-.29-.1-.63-.05-.95-.05-.62,0-1.25,0-1.87,0-.23,0-.34.17-.34.35,0,.17.11.35.34.35.56,0,1.12,0,1.68,0,.35,0,.77.07,1.12-.04.1,0,.17-.04.21-.1.02-.01.04-.01.05-.03Z"/><path class="cls-3" d="M429.06,65.46c.1-.08.1-.28,0-.35-.02-.01-.04-.02-.06-.03-.04-.05-.1-.08-.18-.09-.29-.1-.63-.05-.95-.05-.62,0-1.25,0-1.87,0-.23,0-.34.17-.34.35,0,.17.11.35.34.35.56,0,1.12,0,1.68,0,.35,0,.77.07,1.12-.04.1,0,.17-.04.21-.1.02-.01.04-.01.05-.03Z"/><path class="cls-3" d="M451.61,68.66c-6.31-.97-12.94-.16-19.3-.09-2.1.02-2.1,3.3,0,3.26,6.36.07,12.99.88,19.3-.09,1.53-.23,1.53-2.84,0-3.07Z"/><path class="cls-3" d="M561.1,73.19c-.1-.08-.1-.28,0-.35.02-.01.04-.02.06-.03.04-.05.1-.08.18-.09.29-.1.63-.05.95-.05.62,0,1.25,0,1.87,0,.23,0,.34.17.34.35,0,.17-.11.35-.34.35-.56,0-1.12,0-1.68,0-.35,0-.77.07-1.12-.04-.1,0-.17-.04-.21-.1-.02-.01-.04-.01-.05-.03Z"/><path class="cls-3" d="M561.1,67.55c-.1-.08-.1-.28,0-.35.02-.01.04-.02.06-.03.04-.05.1-.08.18-.09.29-.1.63-.05.95-.05.62,0,1.25,0,1.87,0,.23,0,.34.17.34.35,0,.17-.11.35-.34.35-.56,0-1.12,0-1.68,0-.35,0-.77.07-1.12-.04-.1,0-.17-.04-.21-.1-.02-.01-.04-.01-.05-.03Z"/><path class="cls-3" d="M541.73,71.09c-.1-.08-.1-.28,0-.35.02-.01.04-.02.06-.03.04-.05.1-.08.18-.09.29-.1.63-.05.95-.05.62,0,1.25,0,1.87,0,.23,0,.34.17.34.35,0,.17-.11.35-.34.35-.56,0-1.12,0-1.68,0-.35,0-.77.07-1.12-.04-.1,0-.17-.04-.21-.1-.02-.01-.04-.01-.05-.03Z"/><path class="cls-3" d="M541.73,65.46c-.1-.08-.1-.28,0-.35.02-.01.04-.02.06-.03.04-.05.1-.08.18-.09.29-.1.63-.05.95-.05.62,0,1.25,0,1.87,0,.23,0,.34.17.34.35,0,.17-.11.35-.34.35-.56,0-1.12,0-1.68,0-.35,0-.77.07-1.12-.04-.1,0-.17-.04-.21-.1-.02-.01-.04-.01-.05-.03Z"/><path class="cls-3" d="M519.18,68.66c6.31-.97,12.94-.16,19.3-.09,2.1.02,2.1,3.3,0,3.26-6.36.07-12.99.88-19.3-.09-1.53-.23-1.53-2.84,0-3.07Z"/><path class="cls-3" d="M512.8,64.7c-.08-1.11-.65-2.26-1.49-2.72-1.25-.68-4.09-.33-5.5-.33-1.86,0-3.73.07-5.59.06-4.6,0-9.21-.03-13.81-.01-3.56.01-7.11.02-10.67.04-4.23-.16-8.53-.3-12.73.04-1.41,0-2.81,0-4.22.01-.01,0-.02,0-.03,0,0,0-.08,0-.08,0-1.23,0-1.21,1.32-1.17,2.22.08,2.05-.4,3.48,3.27,3.34,3.2-.12,6.32.05,9.51.07,4.57.03,9.13-.03,13.7-.07s9.13-.03,13.7-.02c3.35,0,6.71.34,10.06.18,1.27-.06,3.18.22,4.28-.65.61-.48.84-1.31.78-2.16Z"/><path class="cls-3" d="M428.01,81.6c-7.02,1.44-14.15,2.26-21.04,4.3-.55.16-.46,1.03.14,1.02,3.22-.07,6.55-1.13,9.71-1.72,3.87-.73,7.62-1.84,11.46-2.62.64-.13.37-1.1-.27-.97Z"/><path class="cls-3" d="M543.02,81.6c7.02,1.44,14.15,2.26,21.04,4.3.55.16.46,1.03-.14,1.02-3.22-.07-6.55-1.13-9.71-1.72-3.87-.73-7.62-1.84-11.46-2.62-.64-.13-.37-1.1.27-.97Z"/><path class="cls-3" d="M198.09,65.59c-10.48,0-26.58,82.79-3.11,92.47l-1.74,17.17h9.7l-1.74-17.17c23.47-9.67,7.37-92.47-3.11-92.47Z"/><path class="cls-6" d="M228.56,86.74c-5.49,0-13.92,43.36-1.63,48.42l-.91,8.99h5.08l-.91-8.99c12.29-5.07,3.86-48.42-1.63-48.42Z"/><path class="cls-6" d="M325.6,100.42c-3.56,0-9.02,28.1-1.05,31.39l-.59,5.83h3.29l-.59-5.83c7.97-3.28,2.5-31.39-1.05-31.39Z"/><path class="cls-6" d="M346.64,92.76c-3.56,0-9.02,28.1-1.05,31.39l-.59,5.83h3.29l-.59-5.83c7.97-3.28,2.5-31.39-1.05-31.39Z"/><path class="cls-6" d="M553.41,30.85c-3.56,0-9.02,28.1-1.05,31.39l-.59,5.83h3.29l-.59-5.83c7.97-3.28,2.5-31.39-1.05-31.39Z"/><path class="cls-5" d="M733.1,170.44c.12-.13.25-.25.38-.38.19-.21-.1-.5-.31-.31-.27.24-.55.47-.82.69h-.12c.3-.56.54-1.15.74-1.6.12-.26-.23-.48-.39-.23-.28.45-.56.89-.86,1.33.21-1.02.21-2.11.08-2.99-.04-.23-.4-.17-.4.05.03.98-.13,1.89-.45,2.81-.05.16-.12.31-.19.47-.34-.38-.58-.82-.71-1.34-.02-.1-.17-.1-.2,0-.12.46.04,1,.33,1.5h-38.54c.37-.38.74-.76,1.09-1.15.21-.23-.11-.56-.34-.34-.46.44-.97.84-1.43,1.28.64-1.44.95-3.04.88-4.48-.01-.28-.44-.29-.44,0-.03,1.4-.42,2.53-.99,3.58.24-1.67.07-3.42-.63-4.83-.07-.14-.32-.04-.26.11.68,1.84.33,3.41-.18,5.01-.29-.5-.62-.96-.91-1.31-.11-.14-.34.04-.25.19.38.58.68,1.19.92,1.84-.01.04-.02.07-.04.11h-29.17c.22-.85.63-1.61,1.47-1.63.18,0,.22-.26.04-.31-.64-.17-1.19.12-1.6.61.32-1.49,1.03-2.83,2.46-3.57.22-.12.07-.51-.17-.41-1.47.58-2.55,2-3.12,3.62-.19-.76-.43-1.49-.69-2.18-.06-.17-.32-.11-.27.08.25,1.12.43,2.22.58,3.33-.16-.38-.33-.76-.52-1.1-.12-.21-.42-.03-.32.19.21.45.37.91.51,1.38h-373.69c.25-.54.52-1.08.77-1.64.14-.31-.22-.63-.49-.37-.35.34-.67.76-.92,1.22-.31-1.72-.95-3.45-1.46-5-.1-.3-.54-.18-.47.13.27,1.31.58,2.61.82,3.92.1.53.15,1.07.19,1.61-.3-.38-.7-.7-1.05-1-.48-.41-.98-.81-1.51-1.14-.18-.11-.36.14-.22.29.43.43.89.83,1.32,1.27.22.22.41.47.62.71h-30.57c.33-.41.68-.81,1.12-1.15.21-.17-.06-.5-.29-.37-.67.38-1.27.91-1.79,1.52h-.76c.46-1.21,1-2.37,1.97-3.44.24-.27-.09-.78-.41-.53-1.27.97-2.25,2.41-2.87,3.97h0c-.06-.2-.13-.4-.19-.61-.23-.72-.4-1.47-.63-2.19-.08-.25-.43-.2-.45.06-.05.68.12,1.39.24,2.06.04.21.06.43.09.65-.39-.56-1.05-1.04-1.59-1.28-.19-.08-.32.15-.16.27.39.29.72.64,1.01,1.03h-79.14c.63-.75,1.44-1.34,2.44-1.66.58-.18.34-1.02-.25-.9-1.15.23-2.45.93-3.36,1.9.01-.05.02-.1.04-.15.26-.77.72-1.47.96-2.25.07-.23-.21-.31-.34-.2,0,0,0,0,0,0-.42.47-.85,1.09-1.19,1.77-.25-1.65-.65-3.63-1.88-4.87-.16-.16-.44-.04-.44.18,0,.15,0,.29,0,.44,0,.15.15.21.27.18.66,1.33.91,2.74.99,4.24.02.44-.02.87-.07,1.3h-.09c-.19-.32-.4-.62-.57-.83-.69-.88-1.8-2.12-2.96-2.35-.13-.03-.25.13-.14.24.77.73,1.54,1.29,2.16,2.18.17.25.32.5.44.77h-83.54c.11-.27.2-.54.31-.74.48-.9,1.15-1.71,2.05-2.21.15-.08.04-.32-.12-.3-.9.12-1.97.63-2.81,1.34,0-.27,0-.54.03-.8.16-1.14.44-2.25.78-3.35.07-.24-.24-.5-.41-.25-.68,1.04-1.48,2.57-1.85,4.09-.64-.73-1.4-1.27-2.42-1.35-.44-.03-.68.58-.23.77.85.37,1.42,1.04,1.8,1.86.12.26.2.6.3.94h-20.48c.15-.48.26-.98.43-1.34.45-.98,1.13-1.77,2.13-2.2.52-.23.24-.95-.28-.91-1.19.09-2.1.73-2.85,1.59-.43-1.8-1.38-3.6-2.18-4.83-.19-.3-.57.02-.48.3.4,1.3.74,2.61.93,3.96.04.31.05.63.04.95-.99-.84-2.25-1.44-3.32-1.58-.18-.02-.31.26-.14.35,1.07.59,1.86,1.55,2.43,2.61.16.3.3.71.46,1.1H0v39.76h754.16v-39.76h-21.06Z"/></svg>