<?xml version="1.0" encoding="UTF-8"?><svg id="OBJECTS" xmlns="http://www.w3.org/2000/svg" width="756.76" height="189" viewBox="0 0 756.76 189"><defs><style>.cls-1{fill:#c38154;}.cls-1,.cls-2,.cls-3,.cls-4{stroke-width:0px;}.cls-2{fill:#561c24;}.cls-3{fill:#ffc26f;}.cls-4{fill:#c3725d;}</style></defs><path class="cls-1" d="M756.76,58.4c-50.34-22.74-102.83-38.97-157.62-38.13-130.59,2-251.49,100.91-380.13,78.37-44.86-7.86-85.96-30.16-130.28-40.67-28.91-6.86-61.62-7.28-88.72,3.17v107.38h756.76V58.4Z"/><path class="cls-2" d="M185.64,86.28c-6.36,0-16.13,50.25-1.89,56.12l-1.06,10.42h5.89l-1.06-10.42c14.24-5.87,4.48-56.12-1.89-56.12Z"/><path class="cls-4" d="M62.7,37.01c-1.67,0-4.23,13.18-.49,14.72l-.28,2.73h1.54l-.28-2.73c3.74-1.54,1.17-14.72-.49-14.72Z"/><path class="cls-4" d="M443.7,20.24c-3.61,0-9.14,28.48-1.07,31.81l-.6,5.91h3.34l-.6-5.91c8.07-3.33,2.54-31.81-1.07-31.81Z"/><path class="cls-4" d="M423.04,42.42c-2.16,0-5.49,17.09-.64,19.09l-.36,3.54h2l-.36-3.54c4.84-2,1.52-19.09-.64-19.09Z"/><path class="cls-4" d="M50.16,5.23c-4.57,0-11.59,36.1-1.35,40.32l-.76,7.49h4.23l-.76-7.49c10.23-4.22,3.22-40.32-1.35-40.32Z"/><path class="cls-2" d="M214.26,51.74c-9.76,0-24.75,77.1-2.89,86.11l-1.62,15.99h9.03l-1.62-15.99c21.85-9.01,6.87-86.11-2.89-86.11Z"/><path class="cls-2" d="M503.71,0c-14.46,0-36.67,114.24-4.29,127.59l-2.4,23.69h13.38l-2.4-23.69c32.38-13.35,10.17-127.59-4.29-127.59Z"/><path class="cls-3" d="M735.63,149.1c.12-.13.26-.25.38-.38.19-.21-.1-.5-.31-.31-.27.24-.55.47-.82.69h-.12c.31-.56.54-1.16.74-1.6.12-.26-.23-.48-.39-.23-.28.45-.57.89-.87,1.33.21-1.03.21-2.11.08-3-.04-.23-.4-.17-.4.05.03.98-.13,1.9-.45,2.82-.06.16-.13.32-.2.47-.34-.38-.59-.82-.71-1.35-.02-.1-.17-.1-.2,0-.12.46.04,1,.33,1.51h-38.68c.37-.38.74-.76,1.09-1.15.21-.23-.11-.56-.34-.34-.46.44-.97.84-1.44,1.28.64-1.44.96-3.05.88-4.5-.01-.28-.44-.29-.44,0-.03,1.41-.42,2.54-.99,3.59.24-1.68.07-3.43-.64-4.84-.07-.14-.32-.04-.26.11.68,1.85.33,3.42-.18,5.03-.3-.5-.62-.96-.91-1.32-.11-.14-.35.04-.25.19.38.58.69,1.19.92,1.84-.01.04-.02.07-.04.11h-29.27c.22-.86.63-1.62,1.48-1.64.18,0,.22-.26.04-.31-.64-.17-1.19.12-1.61.62.32-1.5,1.04-2.84,2.47-3.58.23-.12.07-.51-.17-.41-1.47.58-2.56,2.01-3.13,3.63-.19-.76-.43-1.5-.69-2.19-.06-.17-.32-.11-.28.08.25,1.12.44,2.23.58,3.34-.16-.39-.33-.76-.52-1.11-.12-.21-.43-.03-.32.19.21.45.38.91.51,1.39h-374.97c.25-.55.52-1.08.77-1.64.14-.31-.22-.64-.49-.38-.35.34-.67.77-.92,1.23-.31-1.73-.95-3.47-1.46-5.01-.1-.3-.54-.18-.48.13.27,1.31.58,2.62.82,3.94.1.54.15,1.08.19,1.61-.3-.38-.7-.7-1.05-1-.48-.41-.98-.81-1.52-1.15-.18-.11-.37.14-.22.29.43.44.9.84,1.33,1.27.22.22.41.47.62.71h-30.68c.33-.41.68-.81,1.12-1.16.22-.17-.06-.5-.29-.37-.67.38-1.28.92-1.8,1.53h-.77c.46-1.21,1.01-2.37,1.98-3.45.25-.27-.09-.78-.41-.53-1.28.98-2.26,2.42-2.88,3.98h0c-.06-.2-.13-.41-.19-.61-.23-.73-.4-1.47-.63-2.2-.08-.26-.44-.2-.45.06-.05.69.12,1.4.24,2.07.04.21.06.43.09.65-.39-.57-1.05-1.05-1.59-1.28-.19-.08-.32.15-.16.27.39.29.73.64,1.01,1.03h-79.41c.63-.76,1.44-1.34,2.45-1.66.58-.18.34-1.02-.25-.9-1.16.24-2.46.94-3.37,1.91.01-.05.02-.1.04-.15.26-.78.72-1.47.97-2.25.07-.23-.22-.31-.34-.2,0,0,0,0,0,0-.43.47-.85,1.1-1.19,1.78-.26-1.66-.66-3.65-1.89-4.88-.16-.16-.44-.04-.44.18,0,.15,0,.29,0,.44,0,.15.15.22.27.18.66,1.33.91,2.75.99,4.26.02.44-.02.87-.07,1.3h-.09c-.19-.32-.4-.62-.57-.84-.69-.89-1.8-2.13-2.97-2.36-.13-.03-.25.13-.14.24.77.73,1.54,1.29,2.16,2.19.17.25.32.51.44.77h-83.83c.11-.27.2-.54.31-.75.48-.9,1.15-1.72,2.06-2.22.15-.08.04-.32-.12-.3-.9.12-1.98.63-2.82,1.35,0-.27,0-.54.03-.81.16-1.15.44-2.26.79-3.36.07-.24-.24-.51-.41-.25-.68,1.04-1.49,2.58-1.86,4.1-.64-.74-1.41-1.28-2.42-1.35-.44-.03-.68.58-.23.78.85.37,1.42,1.04,1.81,1.87.12.26.2.6.3.95h-20.55c.15-.48.26-.98.43-1.34.46-.98,1.13-1.77,2.14-2.21.53-.23.24-.95-.28-.92-1.2.09-2.11.73-2.86,1.6-.43-1.8-1.39-3.61-2.19-4.85-.19-.3-.57.02-.48.3.4,1.31.74,2.62.93,3.97.04.32.05.63.04.95-.99-.84-2.26-1.45-3.33-1.59-.18-.02-.31.26-.14.35,1.07.59,1.86,1.56,2.43,2.62.16.3.3.71.46,1.11H0v39.89h756.76v-39.89h-21.13Z"/></svg>